<?xml version="1.0" encoding="UTF-8" standalone="no"?>
<!-- Created with Inkscape (http://www.inkscape.org/) -->

<svg
   width="69.335442mm"
   height="69.335442mm"
   viewBox="0 0 69.335442 69.335442"
   version="1.1"
   id="svg7314"
   inkscape:version="1.3.2 (091e20ef0f, 2023-11-25, custom)"
   sodipodi:docname="logo_2024.svg"
   inkscape:export-filename="logo_2024_icon.png"
   inkscape:export-xdpi="96"
   inkscape:export-ydpi="96"
   xmlns:inkscape="http://www.inkscape.org/namespaces/inkscape"
   xmlns:sodipodi="http://sodipodi.sourceforge.net/DTD/sodipodi-0.dtd"
   xmlns="http://www.w3.org/2000/svg"
   xmlns:svg="http://www.w3.org/2000/svg"
   xmlns:rdf="http://www.w3.org/1999/02/22-rdf-syntax-ns#"
   xmlns:cc="http://creativecommons.org/ns#"
   xmlns:dc="http://purl.org/dc/elements/1.1/">
  <defs
     id="defs7308" />
  <sodipodi:namedview
     id="base"
     pagecolor="#ffffff"
     bordercolor="#666666"
     borderopacity="1.0"
     inkscape:pageopacity="0.0"
     inkscape:pageshadow="2"
     inkscape:zoom="1"
     inkscape:cx="175"
     inkscape:cy="199"
     inkscape:document-units="mm"
     inkscape:current-layer="layer1"
     showgrid="false"
     fit-margin-top="6"
     fit-margin-left="6"
     fit-margin-right="6"
     fit-margin-bottom="6"
     inkscape:window-width="1920"
     inkscape:window-height="1020"
     inkscape:window-x="0"
     inkscape:window-y="0"
     inkscape:window-maximized="1"
     inkscape:showpageshadow="2"
     inkscape:pagecheckerboard="0"
     inkscape:deskcolor="#d1d1d1"
     showguides="true" />
  <metadata
     id="metadata7311">
    <rdf:RDF>
      <cc:Work
         rdf:about="">
        <dc:format>image/svg+xml</dc:format>
        <dc:type
           rdf:resource="http://purl.org/dc/dcmitype/StillImage" />
      </cc:Work>
    </rdf:RDF>
  </metadata>
  <g
     inkscape:label="Layer 1"
     inkscape:groupmode="layer"
     id="layer1"
     transform="translate(-176.56647,-96.536198)">
    <circle
       style="fill:#000000;fill-opacity:1;stroke:none;stroke-width:0.0892185"
       id="path4657-2-9-4-9-1-3-6-3-3-5"
       cx="211.23419"
       cy="131.20392"
       r="34.667721" />
    <text
       xml:space="preserve"
       style="font-style:normal;font-weight:normal;font-size:23.9843px;line-height:1.25;font-family:sans-serif;fill:#8ac9b9;fill-opacity:1;stroke:none;stroke-width:0.599607"
       x="174.15335"
       y="133.96222"
       id="text1-8-9-7-7-1-7"
       transform="scale(0.98751046,1.0126475)"><tspan
         sodipodi:role="line"
         id="tspan1-2-3-4-1-0-0"
         style="font-style:normal;font-variant:normal;font-weight:bold;font-stretch:normal;font-size:23.9843px;font-family:'Terminess Nerd Font';-inkscape-font-specification:'Terminess Nerd Font, Bold';font-variant-ligatures:normal;font-variant-caps:normal;font-variant-numeric:normal;font-variant-east-asian:normal;fill:#8ac9b9;fill-opacity:1;stroke-width:0.599607"
         x="174.15335"
         y="133.96222" /></text>
    <path
       style="font-weight:bold;font-size:23.9843px;line-height:1.25;font-family:'Terminess Nerd Font';-inkscape-font-specification:'Terminess Nerd Font, Bold';fill:#8ac9b9;stroke-width:0.599607"
       d="m 185.57412,114.5564 v -0.7675 h 6.73959 v 0.7675 h 0.74351 v 0.74351 h 0.7675 v 2.25453 h -2.25453 v -1.51101 h -0.76749 v -0.74352 h -3.74155 v 0.74352 h -0.74352 v 10.50512 h 0.74352 v 0.74351 h 3.74155 v -0.74351 h 0.76749 v -1.51101 h 2.25453 v 2.25452 h -0.7675 v 0.74352 h -0.74351 v 0.76749 h -6.73959 v -0.76749 h -0.7675 v -0.74352 h -0.74351 v -11.99215 h 0.74351 v -0.74351 z m 11.99215,4.48506 v -0.74351 h 6.73959 v 0.74351 h 0.74351 v 0.74352 h 0.7675 v 7.50708 h -0.7675 v 0.74352 h -0.74351 v 0.76749 h -6.73959 v -0.76749 h -0.7675 v -0.74352 h -0.74351 v -7.50708 h 0.74351 v -0.74352 z m 5.22858,1.51102 v -0.7675 h -3.74155 v 0.7675 h -0.74352 v 5.99607 h 0.74352 v 0.74351 h 3.74155 v -0.74351 h 0.7675 v -5.99607 z m 12.75965,-2.25453 v -4.50905 h 2.25452 v 15.01417 h -8.2506 v -0.76749 h -0.7675 v -0.74352 h -0.74351 v -7.50708 h 0.74351 v -0.74352 h 0.7675 v -0.74351 z m 0,8.99411 v -7.50708 h -4.50905 v 0.7675 h -0.74352 v 5.99607 h 0.74352 v 0.74351 z m 5.99607,-8.2506 v -0.74351 h 6.73959 v 0.74351 h 0.74351 v 0.74352 h 0.7675 v 4.50905 h -7.50709 v 2.25452 h 0.74352 v 0.74351 h 4.50905 v -0.74351 h 2.25452 v 1.48703 h -0.7675 v 0.76749 h -7.4831 v -0.76749 h -0.7675 v -0.74352 h -0.74351 v -7.50708 h 0.74351 v -0.74352 z m 5.22858,1.51102 v -0.7675 h -3.74155 v 0.7675 h -0.74352 v 2.25452 h 5.25257 v -2.25452 z"
       id="text1-8-9-7-7-1"
       transform="scale(0.98751046,1.0126475)"
       aria-label="Code" />
    <path
       style="font-weight:bold;font-size:23.9843px;line-height:1.25;font-family:'Terminess Nerd Font';-inkscape-font-specification:'Terminess Nerd Font, Bold';fill:#8ac9b9;stroke-width:0.599607"
       d="m 185.58906,131.0949 v -0.7675 h 6.73959 v 0.7675 h 0.74351 v 0.74351 h 0.7675 v 2.25453 h -2.25453 v -1.51102 h -0.76749 v -0.74351 h -3.74156 v 0.74351 h -0.74351 v 3.74156 h 0.74351 v 0.76749 h 5.25257 v 0.74352 h 0.74351 v 0.74351 h 0.7675 v 5.25256 h -0.7675 v 0.74351 h -0.74351 v 0.7675 h -6.73959 v -0.7675 h -0.7675 v -0.74351 h -0.74351 v -2.25452 h 2.25452 v 1.51101 h 0.74351 v 0.74351 h 3.74156 v -0.74351 h 0.76749 v -3.74155 h -0.76749 v -0.7675 h -5.22858 v -0.74351 h -0.7675 v -0.74352 h -0.74351 v -5.25256 h 0.74351 v -0.74351 z m 10.48114,14.24667 V 130.3274 h 2.25452 v 4.50905 h 5.99608 v 0.74351 h 0.74351 v 0.74352 h 0.7675 v 9.01809 h -2.25453 v -8.2506 h -0.76749 v -0.76749 h -4.48507 v 9.01809 z m 13.50316,-9.76161 v -0.74351 h 6.73959 v 0.74351 h 0.74351 v 0.74352 h 0.7675 v 7.50708 h -0.7675 v 0.74351 h -0.74351 v 0.7675 h -6.73959 v -0.7675 h -0.7675 v -0.74351 h -0.74351 v -7.50708 h 0.74351 v -0.74352 z m 5.22858,1.51101 v -0.76749 h -3.74155 v 0.76749 h -0.74352 v 5.99608 h 0.74352 v 0.74351 h 3.74155 v -0.74351 h 0.76749 v -5.99608 z m 5.25256,6.73959 v -8.99411 h 2.25452 v 8.2506 h 0.74352 v 0.74351 h 0.76749 v -5.99607 h 2.23054 v 5.99607 h 0.74352 v -0.74351 h 0.76749 v -8.2506 h 2.25453 v 8.99411 h -0.7675 v 0.74351 h -0.74351 v 0.7675 h -6.73959 v -0.7675 h -0.7675 v -0.74351 z"
       id="text1-8-9-7-7-1-1"
       transform="scale(0.98751046,1.0126475)"
       aria-label="Show" />
    <rect
       style="fill:#000000;fill-opacity:1;stroke-width:0.267858"
       id="rect3"
       width="0.98107547"
       height="0.79967016"
       x="193.39389"
       y="132.70642" />
    <rect
       style="fill:#000000;fill-opacity:1;stroke-width:0.366496"
       id="rect3-8"
       width="1.6222912"
       height="0.90534842"
       x="193.50476"
       y="131.84708" />
  </g>
</svg>
